<svg clip-rule="evenodd" fill-rule="evenodd" stroke-linejoin="round" stroke-miterlimit="2" viewBox="0 0 512 512" xmlns="http://www.w3.org/2000/svg"><g fill="#bfbd00" fill-rule="nonzero" transform="matrix(1.97707 0 0 1.97707 -84.0553 -335.688)"><path d="m269.375 234.401c-.399.763-.871 1.6-1.436 2.497-2.108 3.307-5.501 7.516-11.015 10.548-3.651 2.01-8.249 3.347-13.298 3.33h-36c-7.278-.009-14.52.37-20.823 1.817-6.336 1.458-11.569 3.85-15.779 7.772-2.814 2.64-5.292 6.033-7.336 10.868-2.716 6.429-4.565 15.501-4.562 28.044-.004 14.114 2.338 23.81 5.618 30.34 3.318 6.529 7.388 10.217 12.503 12.94 3.412 1.784 7.352 3.03 11.69 3.843 5.777 1.09 12.219 1.381 18.688 1.376 8.999-.002 22.499-.002 36 0 5.049-.017 9.646 1.32 13.298 3.33 3.668 2.006 6.415 4.582 8.446 7.018 1.823 2.211 3.113 4.312 4.008 6.021 12.394-18.566 19.623-40.873 19.623-64.87 0-23.999-7.23-46.307-19.625-64.874z"/><path d="m207.626 381.275c-10.593-.008-21.518-.718-32.091-3.459-10.543-2.728-20.858-7.629-29.288-15.985-5.613-5.549-10.295-12.556-13.7-20.968-4.552-11.233-6.918-24.897-6.92-41.586.004-18.772 2.997-33.741 8.729-45.68 5.693-11.937 14.304-20.584 24.105-26.087 6.527-3.696 13.519-6.081 20.609-7.617 9.463-2.046 19.14-2.613 28.555-2.618h47.82c-21.228-21.599-50.77-35-83.446-35-64.617 0-117 52.383-117 117s52.383 117 117 117c32.676 0 62.218-13.401 83.446-35z"/></g></svg>